# xmcd
#
# Track frame offsets: 
#        150
#        14969
#        46093
#        64725
#        85791
#        100636
#        127996
#        160888
#        192830
#        215441
#        245029
#        265845
#        289744
#        313857
#        344876
#
# Disc length: 4702 seconds
#
# Revision: 4
# Processed by: cddbd v1.5.2PL0 Copyright (c) Steve Scherf et al.
# Submitted via: ExactAudioCopy v0.99pb3
#
DISCID=e0125c0f
DTITLE=Peter Schwindt - Gwydion 3 - König Arturs Verrat CD4
DYEAR=2007
DGENRE=Hörbuch
TTITLE0=43 Ein Wiedersehen
TTITLE1=44 Ein Wiedersehen
TTITLE2=45 Die Hüterin der Lanze
TTITLE3=46 Die Hüterin der Lanze
TTITLE4=47 Die Hüterin der Lanze
TTITLE5=48 Abschied
TTITLE6=49 Abschied
TTITLE7=50 Abschied
TTITLE8=51 Heimkehr in die Fremde
TTITLE9=52 Heimkehr in die Fremde
TTITLE10=53 Heimkehr in die Fremde
TTITLE11=54 Das Ende der Tafelrunde
TTITLE12=55 Das Ende der Tafelrunde
TTITLE13=56 Das Ende der Tafelrunde
TTITLE14=57 Musik
EXTD=YEAR: 2007
EXTT0=
EXTT1=
EXTT2=
EXTT3=
EXTT4=
EXTT5=
EXTT6=
EXTT7=
EXTT8=
EXTT9=
EXTT10=
EXTT11=
EXTT12=
EXTT13=
EXTT14=
PLAYORDER=
